<?xml version="1.0" encoding="utf-8"?>
<svg id="master-artboard" viewBox="0 0 268 270" version="1.1" xmlns="http://www.w3.org/2000/svg" x="0px" y="0px" style="enable-background:new 0 0 268 270;" width="268px" height="270px"><rect id="ee-background" x="0" y="0" width="268" height="270" style="fill: white; fill-opacity: 0; pointer-events: none;"/>

<path class="st0" d="M137.5,146.1" style="fill: none; stroke: rgb(0, 0, 0); stroke-width: 3;" transform="matrix(1, 0, 0, 1, 0, 0)"/><path class="st1" d="M137.7,203.7c1-19.2,11.5-50.3,26.8-69.8c8.3-10.7,12.2-21.1,12.2-27.4c0-21.9-17.6-39.7-39.2-39.7h0&#10;&#9;&#9;&#9;c-21.6,0-39.2,17.8-39.2,39.7c0,6.3,3.8,16.7,12.2,27.4c15.3,19.6,25.8,50.7,26.8,69.8H137.7z" style="fill: rgb(242, 117, 106);" transform="matrix(1, 0, 0, 1, 0, 0)"/><path d="M139.2,205.2h-3.3l-0.1-1.4c-0.9-18.4-11.1-49.3-26.5-69c-9.2-11.8-12.5-22.3-12.5-28.3c0-22.7,18.3-41.2,40.7-41.2&#10;&#9;&#9;&#9;c22.4,0,40.7,18.5,40.7,41.2c0,6-3.3,16.5-12.5,28.3c-15.4,19.7-25.6,50.5-26.5,69L139.2,205.2L139.2,205.2z M137.5,68.3&#10;&#9;&#9;&#9;c-20.8,0-37.7,17.1-37.7,38.2c0,5.2,3.1,15.3,11.8,26.4c13.1,16.7,22.5,41.3,25.9,60c3.4-18.7,12.8-43.3,25.9-60&#10;&#9;&#9;&#9;c8.7-11.2,11.8-21.2,11.8-26.4C175.2,85.4,158.3,68.3,137.5,68.3L137.5,68.3z" transform="matrix(1, 0, 0, 1, 0, 0)"/>
<path d="M 153.900003 105 A 16.6 16.6 0 0 1 137.300003 121.6 A 16.6 16.6 0 0 1 120.700003 105 A 16.6 16.6 0 0 1 137.300003 88.4 A 16.6 16.6 0 0 1 153.900003 105 Z" transform="matrix(2.0857369899749756, 0, 0, 2.0857369899749756, -149.07174372074513, -113.40165568595108)"/>

<g transform="matrix(1.432889461517334, 0, 0, 1.432889461517334, -293.9173277914112, -477.20972291828025)"><g transform="matrix(1, 0, 0, 1, -10.062607292615482, 1.6771012154359255)">
		<path class="st201" d="M304.2,407l22,12.4c2.6,0.8,0.9,2,0.9,2l-10.6,5c-2.3,1.4-3.9,0-3.9,0l-20.7-12.2c0,0-1.9-1.1,0.1-2.2&#10;&#9;&#9;&#9;l8.2-3.9L304.2,407z" style="fill: rgb(45, 46, 45);"/>
		<g>
			<path d="M 304.29998779296875 417.79998779296875 L 304.5 418.20001220703125 L 306.3999938964844 417.6000061035156 L 307.3999938964844 415 L 304 415.79998779296875 Z" class="st201" style="fill: rgb(45, 46, 45);"/>
			<g>
				<path class="st20" d="M306.4,419.6c0.5,1.4,1.7,2.2,2.6,1.9c0.9-0.3,1.2-1.7,0.6-3.1c-0.5-1.4-1.7-2.2-2.6-1.9&#10;&#9;&#9;&#9;&#9;&#9;C306.1,416.8,305.8,418.2,306.4,419.6z" style="fill: rgb(80, 80, 80);"/>
				<path d="M 307.6000061035156 421.8999938964844 L 307.70001220703125 422.1000061035156 L 309.20001220703125 421.3999938964844 L 308.70001220703125 417.79998779296875 L 306.8999938964844 416.5 L 305.5 417 L 305.79998779296875 417.5 Z" class="st20" style="fill: rgb(80, 80, 80);"/>
				<path class="st21" d="M305,420.2c0.5,1.4,1.7,2.3,2.6,2c0.9-0.3,1.2-1.8,0.6-3.2c-0.6-1.4-1.7-2.3-2.6-2&#10;&#9;&#9;&#9;&#9;&#9;C304.8,417.3,304.5,418.7,305,420.2z" style="fill: rgb(120, 120, 120);"/>
				
					<path d="M 307.500006 419.600006 A 0.9 1.5 0 0 1 306.600006 421.100006 A 0.9 1.5 0 0 1 305.700006 419.600006 A 0.9 1.5 0 0 1 306.600006 418.100006 A 0.9 1.5 0 0 1 307.500006 419.600006 Z" transform="matrix(-0.9339 0.3574 -0.3574 -0.9339 742.9011 701.8611)" class="st20" style="fill: rgb(80, 80, 80);"/>
				<path class="st22" d="M305.9,419.8c0.3,0.7,0.8,1.1,1.2,0.9c0.4-0.2,0.5-0.8,0.3-1.5c-0.3-0.7-0.8-1.1-1.2-0.9&#10;&#9;&#9;&#9;&#9;&#9;C305.8,418.5,305.6,419.1,305.9,419.8z" style="fill: rgb(205, 204, 204);"/>
			</g>
			<path d="M 309 420.29998779296875 L 309.1000061035156 420.79998779296875 L 309.8999938964844 420.6000061035156 L 311.79998779296875 418.79998779296875 L 310.29998779296875 417.6000061035156 L 309.5 418.8999938964844 Z" class="st201" style="fill: rgb(45, 46, 45);"/>
			<path d="M 293.8999938964844 411.79998779296875 L 294.1000061035156 412.29998779296875 L 295.1000061035156 411.8999938964844 L 298.1000061035156 410.5 L 296.70001220703125 409.70001220703125 L 294.3999938964844 410.3999938964844 Z" class="st201" style="fill: rgb(45, 46, 45);"/>
			<g>
				<path class="st20" d="M296,413.6c0.5,1.4,1.7,2.2,2.6,1.9c0.9-0.3,1.2-1.7,0.6-3.1c-0.5-1.4-1.7-2.2-2.6-1.9&#10;&#9;&#9;&#9;&#9;&#9;C295.7,410.8,295.4,412.2,296,413.6z" style="fill: rgb(80, 80, 80);"/>
				<path d="M 297.20001220703125 415.8999938964844 L 297.29998779296875 416.1000061035156 L 298.79998779296875 415.3999938964844 L 298.29998779296875 411.79998779296875 L 296.5 410.5 L 295.1000061035156 411 L 295.3999938964844 411.5 Z" class="st20" style="fill: rgb(80, 80, 80);"/>
				<path class="st21" d="M294.6,414.2c0.5,1.4,1.7,2.3,2.6,2c0.9-0.3,1.2-1.8,0.6-3.2c-0.5-1.4-1.7-2.3-2.6-2&#10;&#9;&#9;&#9;&#9;&#9;C294.4,411.3,294.1,412.7,294.6,414.2z" style="fill: rgb(120, 120, 120);"/>
				
					<path d="M 297.100012 413.600006 A 0.9 1.5 0 0 1 296.200012 415.100006 A 0.9 1.5 0 0 1 295.300012 413.600006 A 0.9 1.5 0 0 1 296.200012 412.100006 A 0.9 1.5 0 0 1 297.100012 413.600006 Z" transform="matrix(-0.9337 0.358 -0.358 -0.9337 720.8242 693.6888)" class="st20" style="fill: rgb(80, 80, 80);"/>
				<path class="st22" d="M295.5,413.8c0.3,0.7,0.8,1.1,1.2,0.9c0.4-0.2,0.5-0.8,0.3-1.5c-0.3-0.7-0.8-1.1-1.2-0.9&#10;&#9;&#9;&#9;&#9;&#9;C295.4,412.5,295.2,413.1,295.5,413.8z" style="fill: rgb(205, 204, 204);"/>
			</g>
			<path class="st12" d="M297.5,401.2l-0.6,0.2c0,0-0.3,0.2-0.5,0.4l-3,3.7l2.5,2.4l3.1,0.6l1.2-6.3L297.5,401.2z" style="fill: rgb(255, 255, 255);"/>
			<linearGradient id="gradient-1" gradientUnits="userSpaceOnUse" x1="299.4595" y1="408.5327" x2="302.362" y2="401.2773">
				<stop offset="0" style="stop-color:#F8971D"/>
				<stop offset="1" style="stop-color:#FDCD08"/>
			</linearGradient>
			<path class="st204" d="M303.9,398.7l-6.9,2.6c-1.4,0.5,0,1,0,1l1.3,0.6c0.8,0.3,0.7,1.4,0.7,1.4l-0.1,2c-0.3,1.3-1.2,0.8-1.2,0.8&#10;&#9;&#9;&#9;&#9;l-4-2c-0.8,0.3-0.9,1.8-0.9,1.8l-0.1,3.2c0,1.5,0.9,1.9,0.9,1.9l0.4,0.2c0.1-0.8,0.5-1.4,1.1-1.7c1.1-0.4,2.4,0.5,3,2.1&#10;&#9;&#9;&#9;&#9;c0.3,0.7,0.3,1.3,0.3,1.9l1.1,0.6l0.9-2.5l7.9-7.8l0.7-6.6C305.6,398.2,303.9,398.7,303.9,398.7z" style="fill: url('#gradient-1');"/>
			<g>
				<path class="st20" d="M310.8,422.2c0.5,1.4,1.7,2.2,2.6,1.9c0.9-0.3,1.2-1.7,0.6-3.1c-0.5-1.4-1.7-2.2-2.6-1.9&#10;&#9;&#9;&#9;&#9;&#9;C310.6,419.4,310.3,420.8,310.8,422.2z" style="fill: rgb(80, 80, 80);"/>
				<path d="M 312.1000061035156 424.5 L 312.20001220703125 424.70001220703125 L 313.6000061035156 424 L 313.20001220703125 420.3999938964844 L 311.3999938964844 419.1000061035156 L 310 419.6000061035156 L 310.29998779296875 420.1000061035156 Z" class="st20" style="fill: rgb(80, 80, 80);"/>
				
					<path d="M 312.900006 422.100006 A 1.8 2.8 0 0 1 311.100006 424.900006 A 1.8 2.8 0 0 1 309.300006 422.100006 A 1.8 2.8 0 0 1 311.100006 419.300006 A 1.8 2.8 0 0 1 312.900006 422.100006 Z" transform="matrix(-0.9337 0.358 -0.358 -0.9337 752.7575 704.9195)" class="st21" style="fill: rgb(120, 120, 120);"/>
				<path class="st20" d="M310.2,422.5c0.3,0.8,0.9,1.2,1.4,1.1c0.5-0.2,0.6-0.9,0.3-1.7c-0.3-0.8-0.9-1.2-1.4-1.1&#10;&#9;&#9;&#9;&#9;&#9;C310.1,421,309.9,421.7,310.2,422.5z" style="fill: rgb(80, 80, 80);"/>
				
					<path d="M 311.900006 422.100006 A 0.8 1.3 0 0 1 311.100006 423.400006 A 0.8 1.3 0 0 1 310.300006 422.100006 A 0.8 1.3 0 0 1 311.100006 420.800006 A 0.8 1.3 0 0 1 311.900006 422.100006 Z" transform="matrix(-0.9338 0.3577 -0.3577 -0.9338 752.6936 705.0463)" class="st22" style="fill: rgb(205, 204, 204);"/>
			</g>
			<path d="M 309.1000061035156 398.5 L 299.70001220703125 402.3999938964844 L 299.5 415.29998779296875 L 310.3999938964844 411 L 309 401.20001220703125 Z" class="st203" style="fill: rgb(195, 107, 40);"/>
			<path d="M 300.70001220703125 404.1000061035156 L 300.1000061035156 402.8999938964844 L 310.1000061035156 398.6000061035156 L 326 406.20001220703125 L 325.20001220703125 407.29998779296875 L 315.1000061035156 412.3999938964844 Z" class="st15" style="fill: rgb(240, 100, 165);"/>
			<path class="st14" d="M315.2,410.8l-15.1-7.8v12.9l4.4,2.4c0.1-0.8,0.5-1.4,1.1-1.6c1.1-0.4,2.4,0.5,3,2.1&#10;&#9;&#9;&#9;&#9;c0.2,0.6,0.3,1.3,0.3,1.8l0.3,0.1c0.1-0.8,0.5-1.4,1.1-1.6c1.1-0.4,2.4,0.5,3,2.1c0.2,0.6,0.3,1.3,0.3,1.9l1.7,0.9l0.7-0.8&#10;&#9;&#9;&#9;&#9;l0.2-11.3L315.2,410.8z" style="fill: rgb(223, 68, 145);"/>
			<path d="M 315.20001220703125 410.79998779296875 L 315.20001220703125 424.1000061035156 L 325.8999938964844 419.1000061035156 L 326 406.20001220703125 Z" class="st13" style="fill: rgb(145, 28, 86);"/>
		</g>
	</g></g><g transform="matrix(1.1335730552673338, 0, 0, 1.1335730552673338, -29.84418075087987, -380.932940727497)"><g transform="matrix(1, 0, 0, 1, 0, 1.4210854715202004e-14)">
		<g>
			<path class="st19" d="M129,419.4l9.1,5.3c0,0,1.5,1.4,4.7-0.5l20-11.6c0,0,2.6-2-1-3.3l-9.6-2.1l-22.7,9.3&#10;&#9;&#9;&#9;&#9;C129.7,416.4,126.5,417.4,129,419.4z" style="fill: rgb(52, 51, 49);"/>
			<g>
				<path d="M 160.39999389648438 411.1000061035156 L 161.39999389648438 411.20001220703125 L 161.10000610351562 409.1000061035156 L 159.60000610351562 408.1000061035156 L 158.39999389648438 408.79998779296875 L 158.6999969482422 410.1000061035156 Z" class="st19" style="fill: rgb(52, 51, 49);"/>
				<path d="M 149 417.79998779296875 L 148.39999389648438 419.1000061035156 L 146.5 418.29998779296875 L 145.5 416 L 146.6999969482422 415.20001220703125 L 148.8000030517578 416.5 Z" class="st19" style="fill: rgb(52, 51, 49);"/>
				<g>
					
						<path d="M 159.499997 411.299988 A 1.8 2.8 0 0 1 157.699997 414.099988 A 1.8 2.8 0 0 1 155.899997 411.299988 A 1.8 2.8 0 0 1 157.699997 408.499988 A 1.8 2.8 0 0 1 159.499997 411.299988 Z" transform="matrix(0.9338 0.3579 -0.3579 0.9338 157.6481 -29.1962)" class="st20" style="fill: rgb(80, 80, 80);"/>
					<path d="M 158.1999969482422 414.3999938964844 L 158.10000610351562 414.6000061035156 L 156.60000610351562 413.8999938964844 L 157.10000610351562 410.29998779296875 L 158.89999389648438 409 L 160.3000030517578 409.5 L 160 410 Z" class="st20" style="fill: rgb(80, 80, 80);"/>
					<path class="st21" d="M160.8,412.6c-0.5,1.4-1.7,2.3-2.6,2c-0.9-0.3-1.2-1.8-0.6-3.2c0.6-1.4,1.7-2.3,2.6-2&#10;&#9;&#9;&#9;&#9;&#9;&#9;C161.1,409.8,161.3,411.2,160.8,412.6z" style="fill: rgb(120, 120, 120);"/>
					
						<path d="M 160.099997 412 A 0.9 1.5 0 0 1 159.199997 413.5 A 0.9 1.5 0 0 1 158.299997 412 A 0.9 1.5 0 0 1 159.199997 410.5 A 0.9 1.5 0 0 1 160.099997 412 Z" transform="matrix(0.9343 0.3566 -0.3566 0.9343 157.3881 -29.6858)" class="st20" style="fill: rgb(80, 80, 80);"/>
					
						<path d="M 159.900006 412 A 0.8 1.3 0 0 1 159.100006 413.3 A 0.8 1.3 0 0 1 158.300006 412 A 0.8 1.3 0 0 1 159.100006 410.7 A 0.8 1.3 0 0 1 159.900006 412 Z" transform="matrix(0.9338 0.3577 -0.3577 0.9338 157.9249 -29.6623)" class="st22" style="fill: rgb(205, 204, 204);"/>
				</g>
				<g>
					<path class="st20" d="M146.5,418.9c-0.5,1.4-1.7,2.3-2.6,2c-0.9-0.3-1.2-1.8-0.6-3.2c0.6-1.4,1.7-2.3,2.6-2&#10;&#9;&#9;&#9;&#9;&#9;&#9;C146.8,416,147.1,417.4,146.5,418.9z" style="fill: rgb(80, 80, 80);"/>
					<path d="M 145.3000030517578 421.29998779296875 L 145.1999969482422 421.5 L 143.8000030517578 420.79998779296875 L 144.1999969482422 417.20001220703125 L 146 415.8999938964844 L 147.5 416.3999938964844 L 147.1999969482422 416.8999938964844 Z" class="st20" style="fill: rgb(80, 80, 80);"/>
					<path class="st21" d="M148,419.6c-0.5,1.4-1.7,2.3-2.6,2c-0.9-0.3-1.2-1.8-0.6-3.2c0.6-1.4,1.7-2.3,2.6-2&#10;&#9;&#9;&#9;&#9;&#9;&#9;C148.2,416.7,148.5,418.2,148,419.6z" style="fill: rgb(120, 120, 120);"/>
					
						<path d="M 147.299994 419 A 0.9 1.5 0 0 1 146.399994 420.5 A 0.9 1.5 0 0 1 145.499994 419 A 0.9 1.5 0 0 1 146.399994 417.5 A 0.9 1.5 0 0 1 147.299994 419 Z" transform="matrix(0.934 0.3572 -0.3572 0.934 159.3384 -24.6441)" class="st20" style="fill: rgb(80, 80, 80);"/>
					
						<path d="M 147.100003 419 A 0.8 1.3 0 0 1 146.300003 420.3 A 0.8 1.3 0 0 1 145.500003 419 A 0.8 1.3 0 0 1 146.300003 417.7 A 0.8 1.3 0 0 1 147.100003 419 Z" transform="matrix(0.9338 0.3577 -0.3577 0.9338 159.5633 -24.6114)" class="st22" style="fill: rgb(205, 204, 204);"/>
				</g>
				<path class="st29" d="M161.4,404.3l-5.9-2.5c0,0-1-0.3-2.3,0l-3.2,0.5l-19.1,8.7c0,0-2.2,1.3-2.2,3.3c0,0-0.2,2.9,1.2,3.5&#10;&#9;&#9;&#9;&#9;&#9;l9.4,5.2c0,0,1,0.6,2.9-0.2l2.3-1.3c-0.1-0.1-0.2-0.2-0.2-0.4c-0.3-0.7-0.3-1.7,0.1-2.7l0,0c0.6-1.6,1.9-2.5,3-2.1&#10;&#9;&#9;&#9;&#9;&#9;c0.9,0.4,1.3,1.6,1,2.9l8.8-5.2c-0.3-0.7-0.2-1.6,0.1-2.5l0,0c0.6-1.6,1.9-2.5,3-2.1c0.7,0.3,1.1,1,1.1,1.9&#10;&#9;&#9;&#9;&#9;&#9;c1.3-1.4,1.2-2.8,1.2-2.8l0.1-1.6C162.6,406.7,162.7,405.1,161.4,404.3z" style="fill: rgb(50, 109, 182);"/>
				<path class="st24" d="M136.7,408.1" style="fill: none;"/>
				
					<path d="M 131.199997 413.299988 A 1 1.6 0 0 1 130.199997 414.899988 A 1 1.6 0 0 1 129.199997 413.299988 A 1 1.6 0 0 1 130.199997 411.699988 A 1 1.6 0 0 1 131.199997 413.299988 Z" transform="matrix(0.9946 -0.1042 0.1042 0.9946 -42.3705 15.8192)" class="st12" style="fill: rgb(255, 255, 255);"/>
				<path class="st12" d="M138.8,417.8c-0.5,0.7-0.5,1.6,0,2c0.6,0.3,1.4,0,2-0.7c0.5-0.7,0.5-1.6,0-2&#10;&#9;&#9;&#9;&#9;&#9;C140.3,416.8,139.4,417.1,138.8,417.8z" style="fill: rgb(255, 255, 255);"/>
				<path class="st12" d="M140.8,404.8l-0.7-0.1l-3.5,3.6c0,0,3.7,4.1,8.7,4.6c0,0,2.4,0.4,4.2-0.8l8.3-4.4c0,0,1.9-1.1,0.9-2.4&#10;&#9;&#9;&#9;&#9;&#9;c0,0-3.4-2.8-6.6-3.2l-3.1-0.5L140.8,404.8z" style="fill: rgb(255, 255, 255);"/>
				<path class="st29" d="M150.1,401.9l5.2,2.3c1.2,0.6,0.2,1.2,0.2,1.2l-6.2,2.8c-1.9,0.7-3.1,0-3.1,0l-5.9-3c0,0-0.7-0.4,0.6-1&#10;&#9;&#9;&#9;&#9;&#9;l7.8-2.6C148.5,401.7,149.4,401.5,150.1,401.9z" style="fill: rgb(50, 109, 182);"/>
				<path class="st29" d="M154.5,405.2l3.2,1.5c0,0,1.1,0.3-0.2,1.7l2.4-2.7l-4.7-1.2L154.5,405.2z" style="fill: rgb(50, 109, 182);"/>
				<path d="M 155.3000030517578 404.3999938964844 L 159.3000030517578 405.29998779296875 L 159.3000030517578 405.8999938964844 L 156.3000030517578 405.3999938964844 Z" class="st29" style="fill: rgb(50, 109, 182);"/>
			</g>
		</g>
		<path class="st29" d="M146.1,408.3c0,0,1.1,0.4,0.9,1.2l-0.7,2.4c0,0-0.4,1-1.9,0.9l0.8,0.7l1.6,0l1.3-0.5l0.3-0.4&#10;&#9;&#9;&#9;c0,0-1.4,0.1-1.2-0.8l0.5-2.5c0,0,0.1-0.8,1.5-1.2l-2.1-0.2L146.1,408.3z" style="fill: rgb(50, 109, 182);"/>
	</g></g><g transform="matrix(0.3724805275744666, 0, 0, 0.3724805275744666, -64.80581476435589, 62.678673629512346)"><g id="Layer_2_8_" transform="matrix(1, 0, 0, 1, 0, 0)">
	<g id="Layer_1-2_8_">
		<path class="st0" d="M509,49l8.3,24.6l21.3-15.1l-7.9,24.8l26.2,0.2L535.9,99l21.1,15.4l-26.2,0.2l7.9,24.8l-21.3-15.1L509,149&#10;&#9;&#9;&#9;l-8.3-24.6l-21.4,15.1l7.9-24.8l-26.2-0.2L482.1,99L461,83.6l26.2-0.2l-7.9-24.8l21.4,15.1L509,49" style="fill: rgb(51, 51, 51);"/>
	</g>
</g></g></svg>